<?xml version="1.0" encoding="utf-8"?>
<!-- Generator: Adobe Illustrator 16.0.0, SVG Export Plug-In . SVG Version: 6.00 Build 0)  -->
<!DOCTYPE svg PUBLIC "-//W3C//DTD SVG 1.1//EN" "http://www.w3.org/Graphics/SVG/1.1/DTD/svg11.dtd">
<svg version="1.1" id="Facebook" xmlns="http://www.w3.org/2000/svg" xmlns:xlink="http://www.w3.org/1999/xlink" x="0px" y="0px"
	 width="1296px" height="1728px" viewBox="0 0 1296 1728" enable-background="new 0 0 1296 1728" xml:space="preserve">
<path fill="#FFFFFF" d="M1101.6,280.8H194.4c-71.28,0-129.6,58.32-129.6,129.601V1317.6c0,71.346,58.32,129.601,129.6,129.601H648
	V993.6H518.4V833.22H648V700.38c0-140.228,78.537-238.723,244.037-238.723l116.834,0.129v168.805h-77.565
	c-64.411,0-88.905,48.341-88.905,93.182v109.513h166.406L972,993.6H842.4V1447.2H1101.6c71.28,0,129.601-58.255,129.601-129.601
	V410.4C1231.2,339.12,1172.88,280.8,1101.6,280.8z"/>
</svg>
