<?xml version="1.0" encoding="utf-8"?>
<!-- Generator: Adobe Illustrator 16.0.0, SVG Export Plug-In . SVG Version: 6.00 Build 0)  -->
<!DOCTYPE svg PUBLIC "-//W3C//DTD SVG 1.1//EN" "http://www.w3.org/Graphics/SVG/1.1/DTD/svg11.dtd">
<svg version="1.1" id="Foursquare" xmlns="http://www.w3.org/2000/svg" xmlns:xlink="http://www.w3.org/1999/xlink" x="0px" y="0px"
	 width="792px" height="1224px" viewBox="0 0 792 1224" enable-background="new 0 0 792 1224" xml:space="preserve">
<path fill="#FFFFFF" d="M194.832,255.6c-20.117,0-36.432,16.315-36.432,36.432v654.033c0,24.75,30.294,36.67,47.203,18.612
	l177.051-189.685c2.693-2.93,6.455-4.593,10.455-4.593h128.185c19.246,0,35.839-13.583,39.64-32.473l83.596-416.354
	c6.852-34.135-19.245-65.974-54.054-65.974H194.832z M349.984,698.724L237.6,830.869V348.383c0-7.484,6.098-13.583,13.583-13.583
	h282.744c13.543,0,23.681,12.395,20.988,25.661l-16.355,81.378c-1.346,6.851-7.365,11.761-14.335,11.761H377.309
	c-11.563,0-20.908,9.346-20.908,20.909v48.312c0,5.505,4.475,9.979,10.019,9.979h130.442c12.117,0,21.226,11.088,18.85,23.008
	l-24.314,121.097c-1.703,8.316-9.029,14.296-17.503,14.296H366.3C360.004,691.2,354.063,693.933,349.984,698.724z"/>
</svg>
