<?xml version="1.0" encoding="utf-8"?>
<!-- Generator: Adobe Illustrator 16.0.0, SVG Export Plug-In . SVG Version: 6.00 Build 0)  -->
<!DOCTYPE svg PUBLIC "-//W3C//DTD SVG 1.1//EN" "http://www.w3.org/Graphics/SVG/1.1/DTD/svg11.dtd">
<svg version="1.1" id="Instagram" xmlns="http://www.w3.org/2000/svg" xmlns:xlink="http://www.w3.org/1999/xlink" x="0px" y="0px"
	 width="1296px" height="1728px" viewBox="0 0 1296 1728" enable-background="new 0 0 1296 1728" xml:space="preserve">
<path fill="#FFFFFF" d="M1101.6,280.8H194.4c-71.28,0-129.6,58.32-129.6,129.601V1317.6c0,71.346,58.32,129.601,129.6,129.601h907.2
	c71.28,0,129.601-58.255,129.601-129.601V410.4C1231.2,339.12,1172.88,280.8,1101.6,280.8z M646.963,1221.891
	c198.224,0,358.863-160.769,358.863-358.928c0-21.902-2.787-43.027-6.675-63.763H1101.6v467.597
	c0,24.754-20.088,44.712-44.906,44.712H239.307c-24.818,0-44.907-19.958-44.907-44.712V799.2h100.375
	c-3.953,20.735-6.739,41.86-6.739,63.763C288.036,1061.187,448.805,1221.891,646.963,1221.891z M422.69,862.963
	c0-123.897,100.44-224.272,224.338-224.272c123.833,0,224.337,100.375,224.337,224.272c0,123.898-100.504,224.338-224.337,224.338
	C523.065,1087.301,422.69,986.861,422.69,862.963z M1056.693,604.8H952.042c-24.754,0-44.842-20.218-44.842-44.842V455.177
	c0-24.754,20.088-44.776,44.776-44.776h104.652c24.883,0,44.971,20.022,44.971,44.776v104.717
	C1101.6,584.582,1081.512,604.8,1056.693,604.8z"/>
</svg>
