<?xml version="1.0" encoding="utf-8"?>
<!-- Generator: Adobe Illustrator 16.0.0, SVG Export Plug-In . SVG Version: 6.00 Build 0)  -->
<!DOCTYPE svg PUBLIC "-//W3C//DTD SVG 1.1//EN" "http://www.w3.org/Graphics/SVG/1.1/DTD/svg11.dtd">
<svg version="1.1" id="Layer_1" xmlns="http://www.w3.org/2000/svg" xmlns:xlink="http://www.w3.org/1999/xlink" x="0px" y="0px"
	 width="96px" height="96px" viewBox="0 0 96 96" enable-background="new 0 0 96 96" xml:space="preserve">
<g>
	<g>
		<polygon fill="#F68E1E" points="76.42,78.933 78.165,82.879 8,22.02 12.344,23.674 18.632,29.01 76.133,78.938 		"/>
		<polygon fill="#F68E1E" points="30.093,82.58 48.707,13.121 50.11,16.711 32.24,80.799 		"/>
		<polygon fill="#F68E1E" points="48.707,13.121 77.783,82.166 75.263,79.791 47.903,17.317 		"/>
		<polygon fill="#F68E1E" points="40.899,48.645 50.827,45.997 88,35.849 82.885,39.613 40.762,50.354 27.69,53.788 24.961,54.077 
					"/>
		<polygon fill="#F68E1E" points="83.946,39.104 30.093,82.58 31.008,79.662 82.815,37.945 86.18,37.117 		"/>
	</g>
	<g>
		<path fill="#2B479C" d="M23.657,62.34l-1.531-0.051l-1.287,0.034c-0.227,0-0.349-0.052-0.349-0.14
			c0-0.104,0.053-0.156,0.156-0.156h0.07c0.086,0,0.504-0.156,0.504-0.643v-0.854c0-1.514-0.4-1.826-1.722-1.826h-0.33
			c-0.139,0-0.209,0.086-0.209,0.261v2.696c0,0.053-0.088,0.383,0.47,0.383c0.121,0,0.19,0.053,0.19,0.139
			c0,0.123-0.139,0.192-0.417,0.192l-1.462-0.036l-1.495,0.036c-0.191,0-0.278-0.069-0.278-0.192c0-0.104,0.19-0.121,0.557-0.156
			l0.452-0.052c0.122-0.017,0.243-0.035,0.243-0.87v-5.428c0-0.261-0.261-0.4-0.765-0.4h-0.209c-0.191,0-0.278-0.052-0.278-0.139
			c0-0.122,0.156-0.191,0.452-0.191h3.862c1.618,0,2.435,0.557,2.435,1.652c0,0.609-0.417,1.375-2.418,1.879
			c0.383,0,2.661,0,2.661,2.366v0.661c0,0.312,0.088,0.47,0.262,0.504l0.436,0.07c0.104,0.018,0.156,0.069,0.156,0.156
			C23.813,62.307,23.761,62.34,23.657,62.34z M19.395,55.277c-0.296,0-0.435,0.14-0.435,0.418v2.696h0.8
			c0.348,0,1.043-0.348,1.043-1.548C20.803,56.234,20.578,55.277,19.395,55.277z"/>
		<path fill="#2B479C" d="M28.425,55.208h-0.296c-0.365,0-0.8,0-0.8,0.958v4.939c0,0.818,0.33,0.957,0.8,0.957h0.296
			c0.052,0,0.069,0.035,0.069,0.121c0,0.088,0,0.14-0.052,0.14h-3.967c-0.052,0-0.052-0.052-0.052-0.14
			c0-0.086,0.018-0.121,0.069-0.121h0.296c0.469,0,0.8-0.139,0.8-0.957v-4.939c0-0.958-0.435-0.958-0.8-0.958h-0.296
			c-0.052,0-0.087-0.034-0.087-0.121c0-0.104,0.018-0.156,0.069-0.156h3.967c0.052,0,0.069,0.052,0.069,0.156
			C28.512,55.174,28.477,55.208,28.425,55.208z"/>
		<path fill="#2B479C" d="M33.277,62.532c-2.643,0-4.209-1.827-4.209-3.932c0-1.86,1.165-3.845,3.896-3.845
			c0.782,0,1.601,0.209,2.436,0.574c0.087,0.035,0.191,0.035,0.348,0.035c0.122,0,0.209,0.017,0.227,0.052
			c0.017,0.035,0.052,0.122,0.086,0.278l0.297,1.444c0.017,0.104,0.052,0.19,0.052,0.243c0,0.087,0.018,0.244-0.122,0.244
			c-0.191,0-0.208-0.244-0.365-0.558c-0.678-1.305-1.46-2-2.801-2c-1.305,0-1.982,1.078-1.982,3.235c0,2,0.678,3.896,2.418,3.896
			c0.574,0,1.339-0.383,1.722-1.096c0.209-0.4,0.365-0.661,0.782-0.661c0.297,0,0.471,0.226,0.471,0.609
			C36.531,61.488,35.766,62.532,33.277,62.532z"/>
		<path fill="#2B479C" d="M41.375,62.48c-2.644,0-4.035-1.914-4.035-3.88s1.392-3.792,4.035-3.792c2.645,0,4.036,1.826,4.036,3.792
			S44.02,62.48,41.375,62.48z M41.393,55.174c-1.183,0-1.982,1.234-1.982,3.443c0,2.262,0.8,3.498,1.982,3.498
			s1.982-1.236,1.982-3.498C43.375,56.408,42.575,55.174,41.393,55.174z"/>
		<path fill="#2B479C" d="M50.576,62.532c-2.645,0-4.211-1.827-4.211-3.932c0-1.86,1.166-3.845,3.897-3.845
			c0.783,0,1.601,0.209,2.437,0.574c0.086,0.035,0.19,0.035,0.347,0.035c0.122,0,0.209,0.017,0.226,0.052
			c0.018,0.035,0.054,0.122,0.088,0.278l0.296,1.444c0.018,0.104,0.052,0.19,0.052,0.243c0,0.087,0.018,0.244-0.121,0.244
			c-0.191,0-0.209-0.244-0.366-0.558c-0.678-1.305-1.461-2-2.8-2c-1.306,0-1.984,1.078-1.984,3.235c0,2,0.679,3.896,2.418,3.896
			c0.574,0,1.341-0.383,1.723-1.096c0.209-0.4,0.366-0.661,0.783-0.661c0.296,0,0.47,0.226,0.47,0.609
			C53.829,61.488,53.063,62.532,50.576,62.532z"/>
		<path fill="#2B479C" d="M63.614,55.19l-0.538,0.035c-0.488,0.035-0.54,0.47-0.54,0.714v5.549c0,0.33,0.139,0.521,0.418,0.557
			l0.539,0.07c0.07,0,0.07,0.086,0.07,0.121c0,0.053-0.07,0.087-0.192,0.087h-3.687c-0.035,0-0.054-0.034-0.054-0.122
			c0-0.086,0.019-0.121,0.07-0.121h0.313c0.539,0,0.783-0.279,0.783-0.957v-2.191l-1.654-0.088l-1.426,0.07
			c-0.14,0.018-0.207,0.156-0.207,0.452v1.879c0,0.608,0.017,0.714,0.347,0.765l0.66,0.088c0.053,0,0.123,0.034,0.123,0.069
			c0,0.104-0.019,0.156-0.175,0.156h-3.705c-0.069,0-0.087-0.069-0.087-0.087c0-0.104,0.069-0.156,0.156-0.156l0.783-0.053
			c0.173-0.018,0.157-0.209,0.157-0.922v-5.219c0-0.435-0.175-0.661-0.522-0.661h-0.4c-0.156,0-0.227-0.052-0.227-0.156
			c0-0.087,0.034-0.122,0.104-0.122h3.896c0.053,0,0.14,0.018,0.14,0.052c0,0.104-0.052,0.191-0.175,0.191
			c-0.33,0-0.834,0.087-0.886,0.14c-0.087,0.104-0.19,0.243-0.19,0.592v1.965c0,0.365,0.051,0.558,0.138,0.558l1.67,0.052
			l1.183-0.069c0.157,0,0.227-0.052,0.244-0.14l0.053-0.817v-1.444c0-0.296-0.104-0.538-0.228-0.695
			c-0.069-0.104-0.382-0.14-0.869-0.14c-0.07,0-0.105-0.034-0.105-0.104c0-0.088,0.035-0.14,0.105-0.14h3.948
			c0.052,0,0.104,0.035,0.104,0.122C63.754,55.139,63.685,55.19,63.614,55.19z"/>
		<path fill="#2B479C" d="M71.193,61.593c-0.018,0.122-0.018,0.278-0.104,0.313c-0.802,0.383-1.428,0.574-2.35,0.574
			c-2.452,0-3.462-1.462-3.462-3.88v-2.435c0-0.645-0.175-0.958-0.801-0.958h-0.295c-0.052,0-0.087-0.034-0.087-0.121
			c0-0.104,0.035-0.14,0.087-0.14h5.723c0.244,0,0.417-0.017,0.749,0.018c0.19,0.33,0.208,0.539,0.312,1.026l0.14,0.696
			c0.018,0.068,0.069,0.348,0.069,0.434c0,0.158-0.018,0.228-0.086,0.228c-0.228,0-0.297-0.122-0.401-0.279l-0.47-0.712
			c-0.608-0.923-0.991-1.027-1.669-1.027h-1.358c-0.12,0-0.173,0.139-0.173,0.399v2.437h2.087c0.191,0,0.313,0.278,0.313,0.383
			c0,0.068-0.018,0.226-0.174,0.226l-1.757,0.087l-0.417,0.104l-0.053,0.313v0.435c0,1.479,0.435,2.401,1.774,2.401
			c0.469,0,1.27-0.227,1.704-1.254l0.4-0.922c0.069-0.156,0.296-0.226,0.348-0.226c0.122,0,0.191,0.087,0.174,0.261L71.193,61.593z"
			/>
		<path fill="#2B479C" d="M80.114,57.312c-0.054,0-0.157-0.051-0.192-0.121l-0.156-0.312l-0.748-1.045
			c-0.312-0.435-0.453-0.557-0.766-0.539l-1.131,0.053c-0.121,0-0.173,0.069-0.173,0.209v5.322c0,1.062,0.104,1.148,0.922,1.148
			c0.26,0,0.33,0.035,0.33,0.104l-0.018,0.157c0,0.051-0.139,0.034-0.261,0.034h-3.635c-0.141,0-0.279,0.034-0.279-0.034v-0.14
			c0-0.069,0.069-0.087,0.313-0.104c0.782-0.104,0.887-0.262,0.887-0.834v-5.429c0-0.313-0.104-0.47-0.313-0.47h-0.66
			c-0.662,0-0.871,0.087-0.992,0.261l-1.147,1.706c-0.035,0.051-0.104,0.086-0.141,0.086c-0.086,0-0.155-0.086-0.155-0.191
			c0-0.139,0.069-0.295,0.155-1.131c0.105-0.939,0.21-1.112,0.522-1.112c0.748,0,0.991,0.068,1.393,0.068l1.913,0.018
			c1.148,0.018,2.435-0.139,3.862-0.139c0.208,0,0.26,0.087,0.312,0.383l0.104,0.695c0.054,0.401,0.105,0.679,0.158,0.835
			c0.052,0.105,0.052,0.191,0.052,0.278C80.271,57.244,80.219,57.312,80.114,57.312z"/>
	</g>
	<circle fill="#F68E1E" cx="80.116" cy="61.648" r="0.863"/>
	<g>
		<path fill="#2B479C" d="M48.177,53.582c-0.419,0-0.756-0.195-0.756-0.423c0-0.101,0.05-0.187,0.137-0.187
			c0.1,0,0.159,0.05,0.219,0.182c0.091,0.205,0.223,0.328,0.469,0.328c0.177,0,0.336-0.159,0.336-0.314
			c0-0.072,0.015-0.173-0.363-0.346c-0.492-0.223-0.714-0.342-0.714-0.705c0-0.246,0.195-0.56,0.682-0.56
			c0.214,0,0.373,0.041,0.564,0.132c0.018,0.009,0.018,0.046,0.022,0.077l0.055,0.383c0.005,0.04-0.014,0.063-0.041,0.063
			c-0.014,0-0.068-0.019-0.082-0.055l-0.096-0.219c-0.104-0.245-0.295-0.296-0.405-0.296c-0.113,0-0.346,0.063-0.346,0.273
			c0,0.159,0.119,0.228,0.328,0.332l0.341,0.169c0.232,0.113,0.41,0.236,0.41,0.536C48.937,53.346,48.608,53.582,48.177,53.582z"/>
		<path fill="#2B479C" d="M50.865,53.486c0.019,0,0.027,0.005,0.027,0.023c0,0.027-0.018,0.041-0.055,0.045
			c-0.05,0.005-0.322-0.027-0.396-0.027c-0.1,0-0.26,0.023-0.306,0.023c-0.044,0-0.076-0.005-0.076-0.032
			c0-0.046,0.045-0.036,0.127-0.041s0.183-0.05,0.255-0.228l0.569-1.369c0.004-0.014,0.009-0.036-0.051-0.064l-0.104-0.045
			c-0.041-0.019-0.077-0.036-0.077-0.06c0-0.009,0.009-0.027,0.022-0.027l0.528-0.081c0.022-0.005,0.059-0.019,0.081-0.019
			c0.023,0,0.032,0.036,0.032,0.1c0,0.027,0.005,0.101,0.022,0.142l0.624,1.47c0.045,0.108,0.127,0.163,0.204,0.163
			c0.078,0,0.091,0.01,0.091,0.046c0,0.027-0.009,0.036-0.035,0.036l-0.388-0.009l-0.577,0.019c-0.037,0-0.051-0.014-0.051-0.037
			c0-0.022,0.014-0.022,0.068-0.031l0.132-0.027c0.096-0.019,0.114-0.06,0.087-0.123l-0.132-0.305
			c-0.051-0.114-0.063-0.142-0.164-0.142h-0.441c-0.063,0-0.132,0.01-0.146,0.023s-0.019,0.014-0.054,0.1l-0.109,0.269
			c-0.06,0.146,0.112,0.209,0.213,0.209H50.865z M50.834,52.622c-0.009,0.019-0.032,0.072-0.032,0.114
			c0,0.031,0.055,0.05,0.173,0.05h0.301c0.059,0,0.091-0.014,0.091-0.041c0-0.005,0-0.014-0.004-0.023l-0.273-0.7L50.834,52.622z"/>
		<path fill="#2B479C" d="M55.357,53.009l-0.037,0.195c-0.032,0.155-0.041,0.219-0.1,0.318c-0.104,0.015-0.16,0.019-0.201,0.019
			h-1.433c-0.041,0-0.064-0.009-0.064-0.031c0-0.023,0.019-0.037,0.06-0.037h0.031c0.219,0,0.242-0.022,0.242-0.377v-1.302
			c0-0.068-0.064-0.104-0.191-0.104h-0.06c-0.046,0-0.067-0.014-0.067-0.037c0-0.031,0.045-0.054,0.131-0.049l0.505,0.013
			l0.419-0.013c0.051,0,0.073,0.013,0.073,0.04c0,0.023-0.01,0.032-0.031,0.036l-0.224,0.023c-0.086,0.009-0.101,0.027-0.101,0.223
			V53.3c0,0.109,0.037,0.164,0.114,0.164h0.141c0.21,0,0.342-0.082,0.542-0.373l0.109-0.159c0.031-0.046,0.091-0.087,0.127-0.087
			c0.018,0,0.027,0.023,0.027,0.073C55.37,52.945,55.37,52.968,55.357,53.009z"/>
		<path fill="#2B479C" d="M57.641,53.582c-0.691,0-1.056-0.5-1.056-1.015c0-0.514,0.364-0.992,1.056-0.992s1.056,0.479,1.056,0.992
			C58.696,53.082,58.332,53.582,57.641,53.582z M57.646,51.671c-0.31,0-0.52,0.323-0.52,0.901c0,0.591,0.21,0.914,0.52,0.914
			s0.519-0.323,0.519-0.914C58.164,51.994,57.955,51.671,57.646,51.671z"/>
		<path fill="#2B479C" d="M62.241,51.667c0,0.004-0.015,0.009-0.027,0.009l-0.155,0.022c-0.096,0.019-0.122,0.027-0.122,0.169v1.588
			c0,0.118-0.005,0.146-0.005,0.168c0,0.041-0.041,0.063-0.068,0.032l-1.319-1.639l-0.018,0.096v1.202
			c0,0.113,0.099,0.141,0.263,0.154c0.055,0.004,0.068,0.014,0.068,0.045c0,0.023-0.005,0.027-0.022,0.027h-0.691
			c-0.051,0-0.073-0.004-0.068-0.019l0.009-0.036c0-0.004,0.014-0.009,0.027-0.009l0.155-0.022c0.095-0.019,0.122-0.027,0.122-0.168
			v-1.084c0-0.418-0.091-0.523-0.241-0.523H60.07c-0.014,0-0.018-0.009-0.018-0.031c0-0.018,0.004-0.036,0.022-0.036h0.71
			l1.014,1.26V51.84c0-0.114-0.1-0.142-0.263-0.155c-0.056-0.005-0.069-0.014-0.069-0.045c0-0.023,0.005-0.027,0.023-0.027h0.69
			c0.052,0,0.073,0.004,0.069,0.019L62.241,51.667z"/>
	</g>
</g>
</svg>
