<?xml version="1.0" encoding="utf-8"?>
<!-- Generator: Adobe Illustrator 16.0.0, SVG Export Plug-In . SVG Version: 6.00 Build 0)  -->
<!DOCTYPE svg PUBLIC "-//W3C//DTD SVG 1.1//EN" "http://www.w3.org/Graphics/SVG/1.1/DTD/svg11.dtd">
<svg version="1.1" id="Tumblr" xmlns="http://www.w3.org/2000/svg" xmlns:xlink="http://www.w3.org/1999/xlink" x="0px" y="0px"
	 width="792px" height="1224px" viewBox="0 0 792 1224" enable-background="new 0 0 792 1224" xml:space="preserve">
<path fill="#FFFFFF" d="M617.76,936.562c-30.769,14.691-58.607,24.987-83.517,30.928c-24.947,5.86-51.915,8.831-80.902,8.831
	c-32.907,0-62.014-4.237-87.318-12.593c-25.304-8.436-46.847-20.435-64.746-35.957c-17.86-15.643-30.254-32.155-37.145-49.658
	c-6.89-17.543-10.335-43.006-10.335-76.27V546.225H174.24V443.106c28.274-9.267,52.509-22.572,72.666-39.996
	c20.196-17.345,36.353-38.214,48.589-62.568c12.197-24.275,20.553-55.282,25.186-92.862h102.366v184.219h170.834v114.325H423.047
	v186.872c0,42.214,2.218,69.379,6.652,81.378c4.396,11.999,12.633,21.582,24.632,28.71c15.958,9.663,34.175,14.533,54.688,14.533
	c36.432,0,72.705-11.999,108.741-35.956V936.562z"/>
</svg>
