<?xml version="1.0" encoding="utf-8"?>
<!-- Generator: Adobe Illustrator 16.0.0, SVG Export Plug-In . SVG Version: 6.00 Build 0)  -->
<!DOCTYPE svg PUBLIC "-//W3C//DTD SVG 1.1//EN" "http://www.w3.org/Graphics/SVG/1.1/DTD/svg11.dtd">
<svg version="1.1" id="Twitter" xmlns="http://www.w3.org/2000/svg" xmlns:xlink="http://www.w3.org/1999/xlink" x="0px" y="0px"
	 width="1296px" height="1728px" viewBox="0 0 1296 1728" enable-background="new 0 0 1296 1728" xml:space="preserve">
<path fill="#FFFFFF" d="M1122.077,620.741c0.519,10.497,0.713,21.124,0.713,31.622c0,323.352-246.046,696.082-695.952,696.082
	c-138.219,0-266.717-40.5-374.998-109.966c19.181,2.268,38.621,3.435,58.32,3.435c114.696,0,220.125-39.14,303.782-104.652
	c-106.984-2.009-197.381-72.641-228.485-169.841c14.904,2.786,30.262,4.276,46.008,4.276c22.356,0,43.999-2.916,64.476-8.488
	C184.032,940.658,99.727,841.839,99.727,723.254c0-1.036,0-2.008,0-3.045c32.983,18.338,70.762,29.354,110.808,30.65
	c-65.643-43.935-108.864-118.714-108.864-203.667c0-44.776,12.053-86.831,33.177-122.99
	C255.441,572.271,435.78,669.6,639.058,679.838c-4.147-17.949-6.285-36.547-6.285-55.792c0-135.044,109.446-244.491,244.555-244.491
	c70.373,0,133.941,29.614,178.589,77.177c55.663-11.017,108.021-31.363,155.325-59.357
	c-18.273,57.089-57.089,105.041-107.567,135.303c49.507-5.962,96.552-18.986,140.486-38.491
	C1211.371,543.305,1169.899,586.332,1122.077,620.741z"/>
</svg>
